<svg width="80" height="80" viewBox="0 0 80 80" fill="none" xmlns="http://www.w3.org/2000/svg">
<path d="M26.6666 26.6667H53.3333V53.3333H26.6666V26.6667Z" stroke="#0891B2" stroke-opacity="0.5" stroke-width="4.99091"/>
<path d="M53.3333 53.3366L63.3333 53.335C68.8562 53.3342 73.334 57.8106 73.3349 63.3335C73.3358 68.8563 68.8593 73.3342 63.3365 73.335C57.8136 73.3359 53.3358 68.8595 53.3349 63.3366L53.3333 53.3366Z" stroke="#0891B2" stroke-width="4.99091"/>
<path d="M26.6698 53.3366L16.6698 53.335C11.147 53.3342 6.66911 57.8106 6.66824 63.3335C6.66737 68.8563 11.1438 73.3342 16.6667 73.335C22.1895 73.3359 26.6674 68.8595 26.6682 63.3366L26.6698 53.3366Z" stroke="#0891B2" stroke-width="4.99091"/>
<path d="M53.3333 26.6668L63.3333 26.6684C68.8562 26.6692 73.334 22.1928 73.3349 16.6699C73.3358 11.1471 68.8593 6.66924 63.3365 6.66837C57.8136 6.6675 53.3358 11.144 53.3349 16.6668L53.3333 26.6668Z" stroke="#0891B2" stroke-width="4.99091"/>
<path d="M26.6698 26.6668L16.6698 26.6684C11.147 26.6692 6.66911 22.1928 6.66824 16.6699C6.66737 11.1471 11.1438 6.66924 16.6667 6.66837C22.1895 6.6675 26.6674 11.144 26.6682 16.6668L26.6698 26.6668Z" stroke="#0891B2" stroke-width="4.99091"/>
</svg>
